<svg xmlns="http://www.w3.org/2000/svg" width="32" height="32" viewBox="0 0 95 112" fill="none">
  <path
    fill="#B4BBBF"
    d="M16.282 21.608 42.365 4.984v106.258c-12.988 2.839-27.37-2.393-35.522-14.061a31.889 31.889 0 0 1-5.448-24.116 30.005 30.005 0 0 1 4.477-11.183 31.514 31.514 0 0 1-3.108-20.231 29.923 29.923 0 0 1 13.518-20.043Z"
  />
  <path
    fill="red"
    d="M71.198 79.631a17.996 17.996 0 0 0 5.336-5.17l11.057 7.336a29.92 29.92 0 0 1-8.874 8.595l-26.083 16.624a31.652 31.652 0 0 1-10.269 4.226v-13.54a19.019 19.019 0 0 0 2.752-1.45l26.08-16.621Z"
  />
  <path
    fill="#FF8B00"
    d="M64.878 66.724a5.432 5.432 0 0 1-1.608 1.557L42.365 81.603V66.81a19.033 19.033 0 0 0 4.117-1.97l9.953-6.344a5.742 5.742 0 0 1 1.6-.704 6.244 6.244 0 0 1 6.698 2.487 5.794 5.794 0 0 1 .988 4.371 5.43 5.43 0 0 1-.843 2.073Z"
  />
  <path
    fill="#FF8B00"
    d="M92.235 70.35a29.918 29.918 0 0 1-4.644 11.447l-11.057-7.335a17.997 17.997 0 0 0 2.794-6.884 19.172 19.172 0 0 0-3.277-14.503 20.718 20.718 0 0 0-22.236-8.242c-1.874.5-3.66 1.285-5.296 2.328l-6.154 3.921v-14.14l15.448-9.846a5.745 5.745 0 0 1 1.602-.704 6.238 6.238 0 0 1 6.696 2.485 5.86 5.86 0 0 1 1.052 3.878l-.09.968.97.294a33.617 33.617 0 0 1 10.203 5.1l1.336.98c4.407 3.446 6.436 5.681 9.548 10.02a31.527 31.527 0 0 1 3.105 20.232Z"
  />
  <path
    fill="#55B2C6"
    d="M89.13 50.117c-3.112-4.338-5.141-6.574-9.548-10.02l.491-1.498c.263-.796.472-1.61.624-2.435A19.173 19.173 0 0 0 77.42 21.66a20.718 20.718 0 0 0-22.237-8.243 19.002 19.002 0 0 0-5.3 2.33l-7.518 4.791V4.984c14.852-9.462 35.392-5.05 45.792 9.835a31.88 31.88 0 0 1 5.447 24.116 30 30 0 0 1-4.474 11.182Z"
  />
  <path
    fill="#fff"
    d="M39.817 98.582a20.718 20.718 0 0 1-22.237-8.243 19.173 19.173 0 0 1-3.277-14.503c.152-.825.36-1.639.624-2.435l.49-1.498 1.337.981a33.646 33.646 0 0 0 10.203 5.098l.97.294-.09.968a5.847 5.847 0 0 0 1.052 3.878 6.239 6.239 0 0 0 6.695 2.485 5.745 5.745 0 0 0 1.603-.704L63.27 68.28a5.432 5.432 0 0 0 2.45-3.631 5.796 5.796 0 0 0-.987-4.371 6.243 6.243 0 0 0-6.698-2.487 5.742 5.742 0 0 0-1.6.704l-9.953 6.345a19.034 19.034 0 0 1-5.296 2.326 20.718 20.718 0 0 1-22.237-8.243 19.17 19.17 0 0 1-3.277-14.502 17.988 17.988 0 0 1 8.13-12.052l26.081-16.623a19.002 19.002 0 0 1 5.3-2.329 20.718 20.718 0 0 1 22.237 8.243 19.172 19.172 0 0 1 3.277 14.503c-.152.825-.36 1.639-.624 2.435l-.49 1.498-1.337-.98a33.617 33.617 0 0 0-10.203-5.1l-.97-.294.09-.968a5.86 5.86 0 0 0-1.052-3.878 6.239 6.239 0 0 0-6.696-2.485 5.745 5.745 0 0 0-1.602.704L31.73 43.72a5.421 5.421 0 0 0-2.449 3.63 5.784 5.784 0 0 0 .986 4.372 6.243 6.243 0 0 0 6.698 2.486 5.767 5.767 0 0 0 1.602-.704l9.952-6.343a18.977 18.977 0 0 1 5.296-2.327 20.718 20.718 0 0 1 22.236 8.242 19.171 19.171 0 0 1 3.277 14.503 17.997 17.997 0 0 1-8.13 12.053L45.117 96.253a19.003 19.003 0 0 1-5.3 2.329Z"
  />
</svg>
