<svg xmlns="http://www.w3.org/2000/svg" fill="none" viewBox="0 0 128 128"><path fill="#55B2C6" d="M109.84 47.71a29.45 29.45 0 0 1-4.4 11H64.52V11.68c13.92-5.62 30.88-.75 39.96 12.29a31.65 31.65 0 0 1 5.36 23.75Z"/><path fill="#FF8B00" d="m95.21 98.38-25.63 16.39a30.98 30.98 0 0 1-5.06 2.6V34.34l15.61-3.12 15.62 17.03s6.71 4.22 9.7 10.47c2.98 6.25 4.27 13.12 3.05 19.92a29.54 29.54 0 0 1-13.29 19.74Z"/><path fill="#FF3E00" d="m95.21 98.38-25.63 16.39a30.98 30.98 0 0 1-5.06 2.6v-28.4l18.21-13 20.3 15.23a29.33 29.33 0 0 1-7.82 7.18Z"/><path fill="#B4BBBF" d="m33.84 30.66 25.63-16.39a30.96 30.96 0 0 1 5.05-2.6v105.7c-13.9 5.62-30.85.75-39.94-12.29a31.43 31.43 0 0 1-5.37-23.75c.7-3.91 2.21-7.67 4.4-11a31.09 31.09 0 0 1-3.06-19.93 29.46 29.46 0 0 1 13.3-19.74Z"/><path fill="#fff" d="M56.4 106.13a20.53 20.53 0 0 1-22-8.16 19.02 19.02 0 0 1-3.25-14.34c.15-.83.35-1.63.63-2.4l.47-1.48 1.33.97a33.3 33.3 0 0 0 10.1 5.06l.95.3-.1.95a5.65 5.65 0 0 0 1.05 3.82 6.18 6.18 0 0 0 6.62 2.45c.55-.15 1.1-.38 1.57-.7l25.8-16.45a5.37 5.37 0 0 0 2.43-3.6 5.66 5.66 0 0 0-.97-4.33 6.18 6.18 0 0 0-6.63-2.44c-.55.14-1.1.37-1.58.7L63 72.74a18.95 18.95 0 0 1-5.25 2.3 20.53 20.53 0 0 1-22-8.15 19.02 19.02 0 0 1-3.25-14.35c.88-4.92 3.8-9.25 8.05-11.92l25.8-16.46a18.95 18.95 0 0 1 5.25-2.3 20.53 20.53 0 0 1 22 8.15 19.02 19.02 0 0 1 3.25 14.36c-.15.82-.35 1.62-.63 2.4l-.47 1.47-1.33-.98a33.3 33.3 0 0 0-10.1-5.05l-.94-.3.1-.95a5.65 5.65 0 0 0-1.06-3.82 6.18 6.18 0 0 0-6.62-2.45c-.55.15-1.1.38-1.58.7l-25.8 16.45a5.37 5.37 0 0 0-2.42 3.6 5.66 5.66 0 0 0 .98 4.32 6.18 6.18 0 0 0 6.62 2.45c.55-.14 1.1-.37 1.57-.7L65 55.25a18.95 18.95 0 0 1 5.25-2.3 20.53 20.53 0 0 1 22 8.15 19.02 19.02 0 0 1 3.25 14.35 17.77 17.77 0 0 1-8.05 11.92l-25.8 16.45a19.28 19.28 0 0 1-5.25 2.3Z"/></svg>